<?xml version="1.0" standalone="no"?>
<!DOCTYPE svg PUBLIC "-//W3C//DTD SVG 20010904//EN"
 "http://www.w3.org/TR/2001/REC-SVG-20010904/DTD/svg10.dtd">
<svg version="1.0" xmlns="http://www.w3.org/2000/svg"
 width="63.000000pt" height="63.000000pt" viewBox="0 0 63.000000 63.000000"
 preserveAspectRatio="xMidYMid meet">

<g transform="translate(0.000000,63.000000) scale(0.100000,-0.100000)"
fill="#000000" stroke="none">
<path d="M0 315 l0 -315 315 0 315 0 0 315 0 315 -315 0 -315 0 0 -315z m166
88 l17 -58 17 55 16 55 135 0 c88 0 142 -5 156 -13 28 -16 39 -56 24 -88 -6
-13 -7 -24 -2 -24 4 0 13 -11 19 -25 15 -31 2 -68 -31 -90 -27 -18 -141 -31
-181 -21 l-26 6 -1 123 0 122 -36 -120 c-20 -66 -41 -123 -47 -127 -18 -12
-83 -9 -93 5 -11 15 -73 219 -73 241 0 12 10 16 44 16 l45 0 17 -57z"/>
<path d="M410 376 c0 -10 9 -16 21 -16 24 0 21 23 -4 28 -10 2 -17 -3 -17 -12z"/>
<path d="M410 280 c0 -16 5 -21 23 -18 12 2 22 10 22 18 0 8 -10 16 -22 18
-18 3 -23 -2 -23 -18z"/>
</g>
</svg>
