<?xml version="1.0" standalone="no"?>
<!DOCTYPE svg PUBLIC "-//W3C//DTD SVG 20010904//EN"
 "http://www.w3.org/TR/2001/REC-SVG-20010904/DTD/svg10.dtd">
<svg version="1.0" xmlns="http://www.w3.org/2000/svg"
 width="108.000000pt" height="108.000000pt" viewBox="0 0 108.000000 108.000000"
 preserveAspectRatio="xMidYMid meet">

<g transform="translate(0.000000,108.000000) scale(0.100000,-0.100000)"
fill="#000000" stroke="none">
<path d="M0 540 l0 -540 540 0 540 0 0 540 0 540 -540 0 -540 0 0 -540z m192
13 l3 -128 58 -3 58 -3 -3 -42 -3 -42 -115 0 -115 0 -3 160 c-1 87 0 165 2
172 4 8 25 13 60 13 l55 0 3 -127z m207 110 c5 -10 12 -45 17 -78 l8 -60 14
48 13 48 62 -3 61 -3 11 -45 11 -45 15 75 14 75 190 0 190 0 3 -47 3 -48 -35
0 -35 0 -3 -122 -3 -123 -62 -3 -63 -3 0 126 0 126 -42 -3 -43 -3 -21 -97
c-37 -167 -26 -149 -96 -146 l-62 3 -17 65 c-18 68 -20 67 -39 -17 l-12 -53
-58 0 c-33 0 -61 4 -64 8 -5 9 -76 319 -76 334 0 4 25 8 55 8 41 0 56 -4 64
-17z"/>
</g>
</svg>
